<?xml version="1.0" encoding="utf-8"?>
<!-- Generator: Adobe Illustrator 17.1.0, SVG Export Plug-In . SVG Version: 6.00 Build 0)  -->
<!DOCTYPE svg PUBLIC "-//W3C//DTD SVG 1.1//EN" "http://www.w3.org/Graphics/SVG/1.1/DTD/svg11.dtd">
<svg version="1.1" id="Layer_1" xmlns="http://www.w3.org/2000/svg" xmlns:xlink="http://www.w3.org/1999/xlink" x="0px" y="0px"
	 viewBox="5.5 11 597.1 552.1" style="enable-background:new 5.5 11 597.1 552.1;" xml:space="preserve">
<style type="text/css">
	.st0{fill:#1687C9;stroke:#FFFFFF;stroke-miterlimit:10;}
	.st1{fill:#FFFFFF;}
</style>
<g id="Layer_1_1_">
</g>
<g id="Layer_2">
</g>
<g id="Layer_3">
	<g id="LinkedIn">
		<g>
			<rect id="linkedin_2_" x="5.5" y="10.9" class="st0" width="597.1" height="552.3"/>
			<path id="linkedin_5_" class="st1" d="M253.2,376.6H204V218.3h49.3V376.6z M227.9,198.9L227.9,198.9c-17.9,0-29.9-11.9-29.9-26.9
				s11.9-26.9,29.9-26.9s29.9,11.9,29.9,26.9S245.8,198.9,227.9,198.9z M451.8,376.6h-56.7v-82.1c0-20.9-9-35.8-28.4-35.8
				c-14.9,0-22.4,10.4-26.9,19.4c-1.5,3-1.5,7.5-1.5,13.4v85.1h-55.2c0,0,0-144.8,0-158.2h55.2v25.4c3-10.4,20.9-26.9,49.3-26.9
				c35.8,0,62.7,22.4,62.7,71.6v88.1H451.8z"/>
		</g>
	</g>
</g>
</svg>
