<?xml version="1.0" encoding="utf-8"?>
<!-- Generator: Adobe Illustrator 17.1.0, SVG Export Plug-In . SVG Version: 6.00 Build 0)  -->
<!DOCTYPE svg PUBLIC "-//W3C//DTD SVG 1.1//EN" "http://www.w3.org/Graphics/SVG/1.1/DTD/svg11.dtd">
<svg version="1.1" id="Layer_1" xmlns="http://www.w3.org/2000/svg" xmlns:xlink="http://www.w3.org/1999/xlink" x="0px" y="0px"
	 viewBox="17.5 141.9 594.5 551.1" style="enable-background:new 17.5 141.9 594.5 551.1;" xml:space="preserve">
<style type="text/css">
	.st0{fill:#66CDEE;stroke:#FFFFFF;stroke-miterlimit:10;}
	.st1{fill:#FFFFFF;}
</style>
<g id="Layer_1_1_">
	<g id="Twitter">
		<g>
			<rect id="twitter" x="17.5" y="141.9" class="st0" width="597.1" height="552.3"/>
			<path id="twit_3_" class="st1" d="M450.3,355.3c-9,4.5-19.4,7.5-29.9,9c10.4-6,19.4-16.4,22.4-28.4c-10.4,6-20.9,10.4-32.8,11.9
				c-9-10.4-22.4-16.4-38.8-16.4c-28.4,0-52.2,23.9-52.2,52.2c0,4.5,0,7.5,1.5,11.9c-43.3-1.5-82.1-22.4-107.5-55.2
				c-4.5,7.5-7.5,16.4-7.5,26.9c0,17.9,9,34.3,23.9,43.3c-9,0-16.4-3-23.9-6l0,0c0,25.4,17.9,46.3,41.8,50.8
				c-4.5,1.5-9,1.5-13.4,1.5c-3,0-6,0-10.4-1.5c6,20.9,25.4,35.8,49.3,35.8c-17.9,13.4-40.3,22.4-64.2,22.4c-4.5,0-9,0-11.9,0
				c22.4,14.9,50.8,23.9,80.6,23.9c95.5,0,147.8-79.1,147.8-147.8c0-3,0-4.5,0-7.5C435.4,374.7,444.4,365.8,450.3,355.3"/>
		</g>
	</g>
</g>
<g id="Layer_2">
</g>
<g id="Layer_3">
</g>
</svg>
